<svg width="30" height="31" viewBox="0 0 30 31" fill="none" xmlns="http://www.w3.org/2000/svg">
<g clip-path="url(#clip0_23_82)">
<path d="M20.605 15.6482L28.2938 8.96822V22.252L20.605 15.6482ZM10.6975 16.7795L13.3975 19.1232C13.8213 19.4832 14.3738 19.7007 14.9775 19.7007H14.9987H14.9975H15.015C15.62 19.7007 16.1725 19.482 16.6012 19.1195L16.5975 19.122L19.2975 16.7782L27.505 23.827H2.49375L10.6975 16.7795ZM2.4825 7.38447H27.52L15.4938 17.8295C15.3585 17.9364 15.1912 17.9946 15.0188 17.9945H15.0013H15.0025H14.985C14.812 17.9947 14.644 17.9361 14.5088 17.8282L14.51 17.8295L2.4825 7.38447ZM1.70625 8.96697L9.39375 15.647L1.70625 22.247V8.96697ZM28.7062 5.91572C28.4062 5.76572 28.0537 5.67822 27.68 5.67822H2.32375C1.96145 5.67831 1.60413 5.76261 1.28 5.92447L1.29375 5.91822C0.905717 6.10961 0.578935 6.4057 0.350318 6.77303C0.121701 7.14036 0.000359185 7.56431 0 7.99697L0 23.212C0.000661755 23.8277 0.245566 24.4181 0.680975 24.8535C1.11639 25.2889 1.70674 25.5338 2.3225 25.5345H27.6763C28.292 25.5338 28.8824 25.2889 29.3178 24.8535C29.7532 24.4181 29.9981 23.8277 29.9988 23.212V7.99697C29.9988 7.08822 29.475 6.30072 28.7125 5.92197L28.6987 5.91572H28.7062Z" fill="white"/>
</g>
<defs>
<clipPath id="clip0_23_82">
<rect width="30" height="30" fill="white" transform="translate(0 0.678223)"/>
</clipPath>
</defs>
</svg>
