<svg width="29" height="33" viewBox="0 0 29 33" fill="none" xmlns="http://www.w3.org/2000/svg">
<path d="M14.5007 18.0606C17.0896 18.0606 19.1884 16.0996 19.1884 13.6805C19.1884 11.2614 17.0896 9.30029 14.5007 9.30029C11.9117 9.30029 9.81299 11.2614 9.81299 13.6805C9.81299 16.0996 11.9117 18.0606 14.5007 18.0606Z" stroke="white" stroke-width="3" stroke-linecap="round" stroke-linejoin="round"/>
<path d="M14.5005 2C11.1852 2 8.00563 3.23062 5.66132 5.42113C3.31702 7.61164 2 10.5826 2 13.6805C2 16.4429 2.62815 18.2505 4.34385 20.2507L14.5005 31.2012L24.6572 20.2507C26.3729 18.2505 27.0011 16.4429 27.0011 13.6805C27.0011 10.5826 25.6841 7.61164 23.3397 5.42113C20.9954 3.23062 17.8159 2 14.5005 2V2Z" stroke="white" stroke-width="3" stroke-linecap="round" stroke-linejoin="round"/>
</svg>
