<svg width="30" height="31" viewBox="0 0 30 31" fill="none" xmlns="http://www.w3.org/2000/svg">
<path d="M25.6963 7.67139L22.5762 4.5542C22.1953 4.17334 21.6855 3.95947 21.1465 3.95947C20.6074 3.95947 20.0977 4.17041 19.7168 4.5542L16.3564 7.90869C15.9756 8.28955 15.7617 8.80225 15.7617 9.34131C15.7617 9.8833 15.9727 10.3901 16.3564 10.7739L18.9814 13.4019C18.3834 14.7952 17.5242 16.0611 16.4502 17.1313C15.375 18.2124 14.1182 19.0649 12.7236 19.6685L10.0986 17.0405C9.71777 16.6597 9.20801 16.4458 8.66895 16.4458C8.40306 16.4448 8.13965 16.4969 7.89415 16.599C7.64865 16.7012 7.426 16.8513 7.23926 17.0405L3.87598 20.395C3.49512 20.7759 3.28125 21.2886 3.28125 21.8276C3.28125 22.3696 3.49219 22.8765 3.87598 23.2603L6.99316 26.3774C7.64355 27.0278 8.54004 27.3999 9.45996 27.3999C9.65039 27.3999 9.83496 27.3853 10.0225 27.353C13.9014 26.7144 17.751 24.6489 20.8594 21.5435C23.9648 18.4321 26.0273 14.5825 26.6719 10.7007C26.8564 9.59912 26.4873 8.46533 25.6963 7.67139ZM24.5947 10.3521C24.0234 13.8062 22.166 17.2515 19.3682 20.0493C16.5703 22.8472 13.1279 24.7046 9.67383 25.2759C9.24024 25.3491 8.79492 25.2026 8.47852 24.8892L5.41699 21.8276L8.66309 18.5786L12.1729 22.0942L12.1992 22.1206L12.832 21.8862C14.7508 21.1808 16.4932 20.0665 17.9384 18.6207C19.3837 17.1749 20.4974 15.4322 21.2022 13.5132L21.4365 12.8804L17.8975 9.34424L21.1436 6.09521L24.2051 9.15674C24.5215 9.47314 24.668 9.91846 24.5947 10.3521Z" fill="white"/>
</svg>
