<svg width="30" height="31" viewBox="0 0 30 31" fill="none" xmlns="http://www.w3.org/2000/svg">
<path d="M15 3.17822C8.1075 3.17822 2.5 8.78572 2.5 15.6782C2.5 22.5707 8.1075 28.1782 15 28.1782C21.8925 28.1782 27.5 22.5707 27.5 15.6782C27.5 8.78572 21.8925 3.17822 15 3.17822ZM15 25.6782C9.48625 25.6782 5 21.192 5 15.6782C5 10.1645 9.48625 5.67822 15 5.67822C20.5138 5.67822 25 10.1645 25 15.6782C25 21.192 20.5138 25.6782 15 25.6782Z" fill="white"/>
<path d="M16.25 9.42822H13.75V16.1957L17.8663 20.312L19.6337 18.5445L16.25 15.1607V9.42822Z" fill="white"/>
</svg>
