<svg width="36" height="35" viewBox="0 0 36 35" fill="none" xmlns="http://www.w3.org/2000/svg">
<path d="M17.797 4.375C15.7189 4.375 10.5783 4.59375 7.84391 7.21875C5.87516 9.07812 5.10953 11.9219 5.00016 15.3125C4.78141 20.6719 5.98453 24.0625 7.95328 25.8125C8.39078 26.1406 9.48453 27.0156 11.5627 27.6719V30.4062C11.5627 30.4062 11.5627 31.5 12.2189 31.7188C12.3283 31.7188 12.4377 31.8281 12.547 31.8281C13.2033 31.8281 13.7502 31.0625 14.5158 30.2969C15.172 29.5313 15.7189 28.9844 16.047 28.4375H18.4533C20.5314 28.4375 25.672 28.2187 28.4064 25.5937C30.3752 23.625 31.1408 20.7812 31.1408 17.1719C31.2502 16.625 31.2502 15.9688 31.2502 15.3125C31.1408 11.2656 29.9377 8.53125 28.297 7C27.6408 6.45313 24.797 4.375 18.672 4.375H17.797V4.375ZM17.5783 6.45313H18.5627C24.3595 6.45313 26.547 8.3125 26.7658 8.53125C28.0783 9.625 28.8439 12.0312 28.9533 15.2031V15.6406C29.0627 16.2969 29.0627 16.8437 29.0627 17.1719C28.9533 20.4531 28.297 22.6406 26.9845 24.0625C24.6877 26.1406 19.8752 26.25 18.5627 26.25H16.4845L14.7345 28.2187L13.6408 29.4219L13.422 29.75C13.2033 29.9688 12.8752 30.4062 12.6564 30.5156V25.5937C10.4689 25.0469 9.59391 24.2813 9.37516 24.0625C7.84391 22.75 6.96891 19.5781 7.18766 15.3125V14.2188C7.40641 11.5937 8.06266 9.84375 9.15641 8.64063C11.4533 6.5625 16.2658 6.45313 17.5783 6.45313V6.45313ZM17.4689 8.85938C16.922 8.85938 16.922 9.625 17.4689 9.625C21.5158 9.625 25.0158 12.3594 25.0158 17.5C25.0158 18.0469 25.7814 18.0469 25.7814 17.5C25.7814 11.9219 22.0627 8.75 17.4689 8.85938V8.85938ZM13.1344 9.87109C12.8866 9.84139 12.6369 9.90969 12.4387 10.0614C11.345 10.6083 10.2502 11.7042 10.5783 12.9073C10.5783 12.9073 10.797 13.8906 12.0002 15.9688C12.6564 16.9531 13.2033 17.8281 13.7502 18.4844C14.297 19.25 15.172 20.125 16.047 20.7812C17.797 22.2031 20.5314 23.625 21.7345 23.9531C22.8283 24.2812 24.0314 23.1875 24.5783 22.0938C24.797 21.6563 24.6877 21.1094 24.2502 20.7812C23.5939 20.125 22.5002 19.3594 21.7345 18.9219C21.1877 18.5937 20.5314 18.8125 20.3127 19.1406L19.7658 19.7969C19.547 20.125 19.0002 20.125 19.0002 20.125C15.3908 19.1406 14.4064 15.4219 14.4064 15.4219C14.4064 15.4219 14.4064 14.9844 14.7345 14.6562L15.3908 14.1094C15.7189 13.8906 15.9377 13.2344 15.6095 12.6875C15.3908 12.3594 15.0627 11.7031 14.7345 11.375C14.4064 10.9375 13.7502 10.1719 13.7502 10.1719C13.5842 10.0057 13.3674 9.89983 13.1344 9.87109V9.87109ZM18.2345 11.0469C17.6877 10.9375 17.5783 11.8125 18.1252 11.8125C21.1877 12.0313 22.9377 14.1094 22.8283 16.7344C22.7189 17.2813 23.5939 17.2813 23.5939 16.7344C23.7033 13.6719 21.7345 11.1563 18.2345 11.0469V11.0469ZM18.5627 13.125C18.0158 13.0156 18.0158 13.8906 18.5627 13.8906C19.8752 13.8906 20.5314 14.6563 20.5314 15.9688C20.6408 16.5156 21.4064 16.5156 21.4064 15.9688C21.297 14.2188 20.3127 13.125 18.5627 13.125Z" fill="white"/>
</svg>
