<svg width="36" height="35" viewBox="0 0 36 35" fill="none" xmlns="http://www.w3.org/2000/svg">
<path d="M20.6665 27.7083H14.8332C11.739 27.7083 8.77152 26.4792 6.58359 24.2912C4.39567 22.1033 3.1665 19.1359 3.1665 16.0417V8.75H8.99984V16.0417C8.99984 17.5888 9.61442 19.0725 10.7084 20.1665C11.8023 21.2604 13.2861 21.875 14.8332 21.875V8.75H20.6665V15.3125L20.7103 15.3067C22.3086 15.1072 23.7791 14.3308 24.8452 13.1234C25.9114 11.916 26.4998 10.3608 26.4998 8.75H32.3332L31.8344 11.2452C31.5357 12.7387 30.8998 14.1442 29.9753 15.3545C29.0508 16.5649 27.8621 17.5481 26.4998 18.2292V18.2292C27.8245 18.6705 29.0062 19.4599 29.9211 20.5146C30.836 21.5693 31.4505 22.8506 31.7003 24.2244L32.3332 27.7083H26.4998C26.4998 26.0976 25.9114 24.5423 24.8452 23.3349C23.7791 22.1275 22.3086 21.3511 20.7103 21.1517V27.7142L20.6665 27.7083Z" stroke="white" stroke-width="2" stroke-linecap="round" stroke-linejoin="round"/>
</svg>
